<svg aria-hidden="true" style="position: absolute; width: 0; height: 0; overflow: hidden;" version="1.1" xmlns="http://www.w3.org/2000/svg" xmlns:xlink="http://www.w3.org/1999/xlink">
<defs>
<symbol id="logo" viewBox="0 0 32 32">
<path fill="#146fff" style="fill: var(--color1, #146fff)" opacity="0.968" d="M7.906 0.031c-1.231 0.356-1.96 1.169-2.188 2.438-1.946-0.022-3.123 0.915-3.531 2.813-0.042 7.958-0.042 15.917 0 23.875 0.262 1.449 1.106 2.356 2.531 2.719 5.688 0.042 11.375 0.042 17.063 0 2.679-2.658 5.335-5.335 7.969-8.031 0.042-6.188 0.042-12.375 0-18.563-0.408-1.897-1.585-2.834-3.531-2.813-0.137-0.91-0.595-1.608-1.375-2.094-1.594-0.724-2.896-0.38-3.906 1.031-0.309-0.517-0.736-0.902-1.281-1.156-1.53-0.549-2.759-0.164-3.688 1.156-0.355-0.553-0.834-0.959-1.438-1.219-1.479-0.438-2.656-0.031-3.531 1.219-0.734-1.103-1.766-1.562-3.094-1.375zM8.219 0.719c1.248-0.023 2.039 0.56 2.375 1.75-1.375 0-2.75 0-4.125 0 0.231-0.94 0.815-1.523 1.75-1.75zM13.219 0.719c1.241-0.028 2.012 0.555 2.313 1.75-1.376 0.021-2.751-0-4.125-0.063 0.267-0.934 0.871-1.497 1.813-1.688zM18.156 0.719c1.21-0.018 2.002 0.544 2.375 1.688-1.374 0.062-2.749 0.083-4.125 0.063 0.231-0.939 0.814-1.523 1.75-1.75zM23.094 0.719c1.248-0.023 2.039 0.56 2.375 1.75-1.375 0-2.75 0-4.125 0 0.231-0.94 0.815-1.523 1.75-1.75z"></path>
<path fill="#67a5ff" style="fill: var(--color2, #67a5ff)" d="M4.969 3.219c1.885-0.062 3.781-0.083 5.688-0.063 0.015 0.081-0.006 0.143-0.063 0.188-1.853-0.124-3.728-0.166-5.625-0.125z"></path>
<path fill="#68a5ff" style="fill: var(--color3, #68a5ff)" d="M15.594 3.219c-1.442-0.020-2.88 0.001-4.313 0.063 0.697-0.083 1.415-0.125 2.156-0.125 0.729 0 1.448 0.021 2.156 0.063z"></path>
<path fill="#68a5ff" style="fill: var(--color3, #68a5ff)" d="M16.281 3.219c1.427-0.083 2.865-0.083 4.313 0-0.008 0.038-0.029 0.059-0.063 0.063-1.406-0.062-2.823-0.083-4.25-0.063z"></path>
<path fill="#68a5ff" style="fill: var(--color3, #68a5ff)" d="M21.219 3.219c1.427-0.062 2.864-0.083 4.313-0.063 0.015 0.081-0.006 0.143-0.063 0.188-1.394-0.124-2.811-0.166-4.25-0.125z"></path>
<path fill="#93c0ff" style="fill: var(--color4, #93c0ff)" d="M29.031 5.344c0 0.729 0 1.458 0 2.188-8.708 0-17.417 0-26.125 0 0-0.75 0-1.5 0-2.25 0.155-0.874 0.634-1.51 1.438-1.906 0.201-0.085 0.41-0.137 0.625-0.156 1.897-0.041 3.772 0.001 5.625 0.125-0.311 1.094-1.040 1.646-2.188 1.656-0.189 0.141-0.23 0.319-0.125 0.531 1.325 0.154 2.273-0.388 2.844-1.625 0.072-0.204 0.124-0.413 0.156-0.625 1.433-0.062 2.87-0.083 4.313-0.063-0.296 1.161-1.046 1.754-2.25 1.781-0.294 0.342-0.221 0.561 0.219 0.656 1.488-0.166 2.395-0.978 2.719-2.438 1.427-0.021 2.844 0 4.25 0.063-0.186 0.863-0.707 1.415-1.563 1.656-0.275 0.001-0.535 0.053-0.781 0.156-0.142 0.342-0.027 0.529 0.344 0.563 1.512-0.14 2.408-0.953 2.688-2.438 1.439-0.041 2.856 0.001 4.25 0.125-0.31 1.094-1.039 1.646-2.188 1.656-0.249 0.211-0.249 0.42 0 0.625 1.643-0.029 2.602-0.852 2.875-2.469 1.098-0.060 1.962 0.356 2.594 1.25 0.162 0.293 0.255 0.605 0.281 0.938z"></path>
<path fill="#80b4ff" style="fill: var(--color5, #80b4ff)" d="M2.906 5.281c0 0.75 0 1.5 0 2.25 8.708 0 17.417 0 26.125 0 0-0.729 0-1.458 0-2.188 0.062 0.739 0.083 1.489 0.063 2.25-8.75 0-17.5 0-26.25 0-0.021-0.782 0-1.553 0.063-2.313z"></path>
<path fill="#fefeff" style="fill: var(--color6, #fefeff)" d="M23.969 23.406c-1.435 0.255-2.341 1.088-2.719 2.5-0.031 1.771-0.042 3.542-0.031 5.313-5.479 0.010-10.958 0-16.438-0.031-1.086-0.325-1.711-1.044-1.875-2.156 0-6.917 0-13.833 0-20.75 8.708 0 17.417 0 26.125 0 0 5.021 0 10.042 0 15.063-1.698-0.021-3.386 0-5.063 0.063z"></path>
<path fill="#b5d1ff" style="fill: var(--color7, #b5d1ff)" d="M23.969 23.406c1.677-0.062 3.364-0.083 5.063-0.063 0-5.021 0-10.042 0-15.063-8.708 0-17.417 0-26.125 0 0 6.917 0 13.833 0 20.75-0.062-6.927-0.083-13.864-0.063-20.813 8.75 0 17.5 0 26.25 0 0 5.063 0 10.125 0 15.188-1.708 0-3.417 0-5.125 0z"></path>
<path fill="#1f72ff" style="fill: var(--color8, #1f72ff)" d="M7.281 10.094c1.042-0.010 2.084 0 3.125 0.031 0.511 0.146 0.855 0.469 1.031 0.969 0.042 1.063 0.042 2.125 0 3.188-0.156 0.573-0.521 0.938-1.094 1.094-1 0.042-2 0.042-3 0-0.546-0.15-0.911-0.494-1.094-1.031-0.042-1.083-0.042-2.167 0-3.25 0.215-0.475 0.559-0.809 1.031-1z"></path>
<path fill="#2373ff" style="fill: var(--color9, #2373ff)" d="M14.406 10.094c1.021-0.010 2.042 0 3.063 0.031 0.536 0.128 0.901 0.451 1.094 0.969 0.042 1.083 0.042 2.167 0 3.25-0.188 0.563-0.573 0.907-1.156 1.031-1 0.042-2 0.042-3 0-0.51-0.177-0.854-0.521-1.031-1.031-0.042-1.083-0.042-2.167 0-3.25 0.215-0.475 0.559-0.809 1.031-1z"></path>
<path fill="#2072ff" style="fill: var(--color10, #2072ff)" d="M21.531 10.094c1-0.010 2 0 3 0.031 0.555 0.117 0.94 0.44 1.156 0.969 0.042 1.083 0.042 2.167 0 3.25-0.181 0.536-0.546 0.879-1.094 1.031-1.021 0.042-2.042 0.042-3.063 0-0.51-0.177-0.854-0.521-1.031-1.031-0.042-1.083-0.042-2.167 0-3.25 0.194-0.496 0.538-0.83 1.031-1z"></path>
<path fill="#d5e8ff" style="fill: var(--color11, #d5e8ff)" d="M7.344 10.781c0.979-0.010 1.959 0 2.938 0.031 0.255 0.067 0.432 0.223 0.531 0.469 0.042 0.958 0.042 1.917 0 2.875-0.066 0.191-0.181 0.348-0.344 0.469-1.037 0.101-2.079 0.122-3.125 0.063-0.133-0.070-0.247-0.164-0.344-0.281-0.102-1.078-0.123-2.161-0.063-3.25 0.129-0.14 0.264-0.265 0.406-0.375z"></path>
<path fill="#d6e8ff" style="fill: var(--color12, #d6e8ff)" d="M14.469 10.781c0.979-0.010 1.959 0 2.938 0.031 0.19 0.064 0.346 0.179 0.469 0.344 0.042 1.042 0.042 2.083 0 3.125-0.070 0.133-0.164 0.247-0.281 0.344-1.038 0.101-2.079 0.122-3.125 0.063-0.133-0.070-0.247-0.164-0.344-0.281-0.102-1.078-0.123-2.161-0.063-3.25 0.129-0.14 0.264-0.265 0.406-0.375z"></path>
<path fill="#93c0ff" style="fill: var(--color4, #93c0ff)" d="M21.594 10.781c0.979-0.010 1.959 0 2.938 0.031 0.19 0.064 0.346 0.179 0.469 0.344 0.042 1.042 0.042 2.083 0 3.125-0.070 0.133-0.164 0.247-0.281 0.344-1.038 0.101-2.079 0.122-3.125 0.063-0.133-0.070-0.247-0.164-0.344-0.281-0.102-1.078-0.123-2.161-0.063-3.25 0.12-0.147 0.255-0.272 0.406-0.375z"></path>
<path fill="#1e72ff" style="fill: var(--color13, #1e72ff)" d="M7.281 16.719c1-0.010 2 0 3 0.031 0.563 0.11 0.948 0.433 1.156 0.969 0.042 1.063 0.042 2.125 0 3.188-0.163 0.6-0.548 0.965-1.156 1.094-1 0.042-2 0.042-3 0-0.51-0.177-0.854-0.521-1.031-1.031-0.042-1.083-0.042-2.167 0-3.25 0.215-0.475 0.559-0.809 1.031-1z"></path>
<path fill="#2373ff" style="fill: var(--color9, #2373ff)" d="M14.406 16.719c1-0.010 2 0 3 0.031 0.555 0.117 0.94 0.44 1.156 0.969 0.042 1.083 0.042 2.167 0 3.25-0.183 0.537-0.548 0.881-1.094 1.031-1.021 0.042-2.042 0.042-3.063 0-0.51-0.177-0.854-0.521-1.031-1.031-0.042-1.083-0.042-2.167 0-3.25 0.215-0.475 0.559-0.809 1.031-1z"></path>
<path fill="#2172ff" style="fill: var(--color14, #2172ff)" d="M21.531 16.719c1-0.010 2 0 3 0.031 0.555 0.117 0.94 0.44 1.156 0.969 0.042 1.083 0.042 2.167 0 3.25-0.181 0.536-0.546 0.879-1.094 1.031-1.021 0.042-2.042 0.042-3.063 0-0.51-0.177-0.854-0.521-1.031-1.031-0.042-1.083-0.042-2.167 0-3.25 0.215-0.475 0.559-0.809 1.031-1z"></path>
<path fill="#93c0ff" style="fill: var(--color4, #93c0ff)" d="M7.344 17.406c0.979-0.010 1.959 0 2.938 0.031 0.255 0.067 0.432 0.223 0.531 0.469 0.042 0.958 0.042 1.917 0 2.875-0.064 0.19-0.179 0.346-0.344 0.469-1.036 0.102-2.078 0.123-3.125 0.063-0.133-0.070-0.247-0.164-0.344-0.281-0.102-1.078-0.123-2.161-0.063-3.25 0.129-0.14 0.264-0.265 0.406-0.375z"></path>
<path fill="#d6e8ff" style="fill: var(--color12, #d6e8ff)" d="M14.469 17.406c0.979-0.010 1.959 0 2.938 0.031 0.19 0.064 0.346 0.179 0.469 0.344 0.042 1.042 0.042 2.083 0 3.125-0.070 0.133-0.164 0.247-0.281 0.344-1.036 0.102-2.078 0.123-3.125 0.063-0.133-0.070-0.247-0.164-0.344-0.281-0.102-1.078-0.123-2.161-0.063-3.25 0.129-0.14 0.264-0.265 0.406-0.375z"></path>
<path fill="#d5e8ff" style="fill: var(--color11, #d5e8ff)" d="M21.594 17.406c0.979-0.010 1.959 0 2.938 0.031 0.19 0.064 0.346 0.179 0.469 0.344 0.042 1.042 0.042 2.083 0 3.125-0.070 0.133-0.164 0.247-0.281 0.344-1.036 0.102-2.078 0.123-3.125 0.063-0.222-0.118-0.379-0.295-0.469-0.531-0.042-0.938-0.042-1.875 0-2.813 0.101-0.236 0.257-0.424 0.469-0.563z"></path>
<path fill="#2072ff" style="fill: var(--color10, #2072ff)" d="M7.281 23.344c1-0.010 2 0 3 0.031 0.563 0.11 0.948 0.433 1.156 0.969 0.042 1.063 0.042 2.125 0 3.188-0.142 0.621-0.527 0.986-1.156 1.094-1 0.042-2 0.042-3 0-0.51-0.177-0.854-0.521-1.031-1.031-0.042-1.083-0.042-2.167 0-3.25 0.215-0.475 0.559-0.809 1.031-1z"></path>
<path fill="#2072ff" style="fill: var(--color10, #2072ff)" d="M14.406 23.344c1.021-0.010 2.042 0 3.063 0.031 0.52 0.145 0.884 0.468 1.094 0.969 0.042 1.083 0.042 2.167 0 3.25-0.19 0.565-0.575 0.909-1.156 1.031-1 0.042-2 0.042-3 0-0.51-0.177-0.854-0.521-1.031-1.031-0.042-1.083-0.042-2.167 0-3.25 0.215-0.475 0.559-0.809 1.031-1z"></path>
<path fill="#d5e8ff" style="fill: var(--color11, #d5e8ff)" d="M7.344 24.031c1-0.010 2 0 3 0.031 0.154 0.091 0.289 0.206 0.406 0.344 0.102 0.994 0.123 1.994 0.063 3-0.067 0.255-0.223 0.432-0.469 0.531-1 0.042-2 0.042-3 0-0.133-0.070-0.247-0.164-0.344-0.281-0.102-1.078-0.123-2.161-0.063-3.25 0.129-0.14 0.264-0.265 0.406-0.375z"></path>
<path fill="#93c0ff" style="fill: var(--color4, #93c0ff)" d="M14.469 24.031c1-0.010 2 0 3 0.031 0.154 0.091 0.289 0.206 0.406 0.344 0.042 1.042 0.042 2.083 0 3.125-0.070 0.133-0.164 0.247-0.281 0.344-1.038 0.101-2.079 0.122-3.125 0.063-0.133-0.070-0.247-0.164-0.344-0.281-0.102-1.078-0.123-2.161-0.063-3.25 0.129-0.14 0.264-0.265 0.406-0.375z"></path>
<path fill="#93c0ff" style="fill: var(--color4, #93c0ff)" d="M21.969 30.656c-0.062-1.489-0.083-2.989-0.063-4.5 0.212-0.997 0.795-1.674 1.75-2.031 1.643-0.101 3.289-0.122 4.938-0.063-2.2 2.21-4.408 4.408-6.625 6.594z"></path>
<path fill="#5b9dff" style="fill: var(--color15, #5b9dff)" d="M21.906 26.156c-0.021 1.511 0 3.011 0.063 4.5-0.018 0.049-0.049 0.091-0.094 0.125-0.052-1.552-0.041-3.094 0.031-4.625z"></path>
</symbol>
<symbol id="facebook" viewBox="0 0 18 32">
<path d="M11.703 29.591v-13.137h4.632l0.693-5.12h-5.325v-3.269c0-1.482 0.432-2.492 2.665-2.492l2.848-0.001v-4.579c-0.492-0.062-2.183-0.202-4.149-0.202-4.106 0-6.916 2.386-6.916 6.768v3.776h-4.643v5.12h4.643v13.137h5.553z"></path>
</symbol>
<symbol id="instagram" viewBox="0 0 30 32">
<path fill-rule="evenodd" clip-rule="evenodd" d="M1.363 15.191c0-5.752 0-8.628 1.371-10.7 0.612-0.925 1.404-1.717 2.329-2.329 2.072-1.371 4.948-1.371 10.7-1.371s8.628 0 10.7 1.371c0.925 0.612 1.717 1.404 2.329 2.329 1.371 2.072 1.371 4.948 1.371 10.7s0 8.628-1.371 10.7c-0.612 0.925-1.404 1.717-2.329 2.329-2.072 1.371-4.948 1.371-10.7 1.371s-8.628 0-10.7-1.371c-0.925-0.612-1.717-1.404-2.329-2.329-1.371-2.072-1.371-4.948-1.371-10.7zM23.217 15.192c0 4.117-3.338 7.455-7.455 7.455s-7.455-3.338-7.455-7.455c0-4.117 3.338-7.455 7.455-7.455s7.455 3.338 7.455 7.455zM15.762 20.125c2.724 0 4.933-2.208 4.933-4.933s-2.208-4.933-4.933-4.933-4.933 2.209-4.933 4.933c0 2.724 2.209 4.933 4.933 4.933zM23.512 9.114c0.968 0 1.752-0.784 1.752-1.752s-0.784-1.752-1.752-1.752c-0.967 0-1.752 0.784-1.752 1.752s0.784 1.752 1.752 1.752z"></path>
</symbol>
<symbol id="linkedIn" viewBox="0 0 32 32">
<path d="M1.434 5.751c0-0.972 0.341-1.774 1.024-2.406s1.57-0.948 2.663-0.948c1.073 0 1.941 0.311 2.604 0.933 0.683 0.642 1.024 1.478 1.024 2.508 0 0.933-0.332 1.711-0.995 2.333-0.683 0.642-1.58 0.962-2.692 0.962h-0.029c-1.073 0-1.941-0.321-2.604-0.962s-0.995-1.448-0.995-2.421zM1.815 31.269v-19.481h6.496v19.481h-6.496zM11.91 31.269h6.496v-10.878c0-0.68 0.078-1.205 0.234-1.575 0.273-0.661 0.688-1.22 1.244-1.677s1.253-0.685 2.092-0.685c2.185 0 3.277 1.468 3.277 4.404v10.411h6.496v-11.17c0-2.878-0.683-5.060-2.049-6.547s-3.17-2.231-5.413-2.231c-2.517 0-4.477 1.079-5.882 3.237v0.058h-0.029l0.029-0.058v-2.771h-6.496c0.039 0.622 0.059 2.557 0.059 5.804s-0.020 7.806-0.059 13.678z"></path>
</symbol>
</defs>
</svg>
