<?xml version="1.0" standalone="no"?>
<!DOCTYPE svg PUBLIC "-//W3C//DTD SVG 20010904//EN"
 "http://www.w3.org/TR/2001/REC-SVG-20010904/DTD/svg10.dtd">
<svg version="1.0" xmlns="http://www.w3.org/2000/svg"
 width="512.000000pt" height="512.000000pt" viewBox="0 0 512.000000 512.000000"
 preserveAspectRatio="xMidYMid meet">
<metadata>
Created by potrace 1.14, written by Peter Selinger 2001-2017
</metadata>
<g transform="translate(0.000000,512.000000) scale(0.100000,-0.100000)"
fill="#000000" stroke="none">
<path d="M1559 4467 c-43 -22 -66 -70 -65 -132 1 -31 -2 -59 -7 -62 -5 -3
-120 -6 -255 -7 -221 -2 -253 -5 -304 -23 -100 -37 -194 -116 -236 -200 -54
-106 -52 -38 -52 -1483 0 -1445 -2 -1377 52 -1483 42 -84 135 -163 236 -200
l57 -21 1548 -2 c925 0 1570 3 1600 8 114 21 237 108 289 205 61 113 58 30 58
1492 0 1423 1 1381 -48 1477 -50 97 -168 191 -277 220 -16 4 -133 9 -260 10
-126 1 -233 3 -237 3 -5 1 -8 26 -8 56 0 73 -23 119 -71 140 -51 23 -100 14
-133 -26 -14 -17 -27 -38 -28 -47 -2 -18 -5 -73 -7 -107 -1 -20 -8 -20 -841
-20 l-840 0 -1 35 c-1 92 -6 112 -37 142 -34 34 -92 45 -133 25z m2707 -2254
l-1 -988 -22 -40 c-27 -51 -58 -80 -108 -101 -37 -16 -157 -17 -1575 -17
-1419 0 -1538 1 -1575 17 -50 21 -81 50 -108 101 l-22 40 -1 988 -1 987 1707
0 1707 0 -1 -987z"/>
<path d="M1466 2864 c-66 -21 -147 -102 -169 -169 -21 -65 -21 -211 1 -274 20
-60 102 -142 162 -163 63 -21 202 -23 269 -3 69 21 150 99 173 167 22 62 22
214 0 276 -21 61 -102 143 -162 164 -61 20 -211 22 -274 2z m224 -222 c13 -16
17 -37 16 -88 -3 -88 -18 -102 -111 -100 -89 2 -103 18 -101 112 3 88 18 102
111 100 56 -2 70 -5 85 -24z"/>
<path d="M2426 2864 c-66 -21 -147 -102 -169 -169 -21 -65 -21 -211 1 -274 20
-60 102 -142 162 -163 63 -21 202 -23 269 -3 71 22 150 99 174 169 22 63 22
195 1 266 -20 67 -98 149 -164 172 -61 20 -211 22 -274 2z m221 -217 c14 -14
18 -34 18 -87 0 -93 -12 -105 -106 -105 -93 0 -107 15 -105 111 3 87 18 100
109 100 50 -1 71 -5 84 -19z"/>
<path d="M3380 2863 c-26 -10 -65 -37 -96 -68 -66 -66 -86 -124 -83 -245 3
-114 21 -163 84 -227 63 -62 122 -83 235 -83 113 0 172 21 235 83 65 65 85
121 85 232 0 118 -20 177 -83 240 -33 32 -69 57 -97 67 -63 21 -222 22 -280 1z
m227 -216 c14 -14 18 -34 18 -87 0 -93 -12 -105 -105 -105 -88 0 -103 13 -106
92 -4 102 15 121 118 119 41 -1 63 -6 75 -19z"/>
<path d="M1471 2010 c-66 -22 -118 -64 -156 -126 -29 -48 -30 -53 -30 -174 0
-109 3 -130 21 -165 33 -60 80 -104 141 -132 47 -22 69 -26 147 -25 107 1 126
5 178 32 51 26 95 73 122 130 18 38 21 63 21 160 0 103 -3 120 -25 163 -29 58
-77 102 -139 130 -64 28 -207 32 -280 7z m194 -205 c33 -7 43 -35 41 -113 -3
-79 -17 -91 -104 -92 -53 0 -67 4 -87 24 -21 21 -24 32 -22 83 2 32 8 68 15
80 16 29 72 35 157 18z"/>
<path d="M2478 2025 c-2 -2 -16 -6 -31 -9 -36 -6 -106 -47 -133 -78 -61 -68
-69 -95 -69 -228 0 -109 3 -130 21 -165 33 -60 80 -104 141 -132 46 -21 70
-25 149 -25 114 0 177 20 234 74 72 69 85 106 85 243 0 108 -2 125 -25 168
-52 102 -136 148 -276 153 -51 1 -94 1 -96 -1z m147 -220 c33 -7 43 -35 41
-113 -3 -79 -17 -91 -104 -92 -53 0 -67 4 -87 24 -21 21 -24 32 -22 83 2 32 8
68 15 80 16 29 72 35 157 18z"/>
<path d="M3438 2025 c-2 -2 -15 -6 -30 -9 -72 -13 -142 -72 -179 -150 -27 -57
-29 -67 -26 -171 2 -90 7 -117 25 -150 62 -115 143 -159 295 -157 108 1 172
22 227 74 68 65 84 107 87 230 3 124 -9 169 -62 234 -55 67 -125 96 -239 99
-52 2 -96 2 -98 0z m174 -238 c13 -16 16 -38 14 -84 -3 -85 -21 -103 -95 -103
-74 0 -97 7 -108 33 -8 19 -10 85 -5 142 5 45 162 54 194 12z"/>
</g>
</svg>
